<svg xmlns="http://www.w3.org/2000/svg" viewBox="0 0 64 64" role="img" aria-label="Study Notes favicon">
  <rect width="64" height="64" rx="18" fill="#f8fbfa"/>
  <rect x="5" y="5" width="54" height="54" rx="15" fill="#2f6f6d"/>
  <path d="M15 19c0-3 2-5 5-5h10c4 0 7 3 7 7v27c0 1-1 2-2 1-3-3-6-4-10-4h-5c-3 0-5-2-5-5V19Z" fill="#ffffff"/>
  <path d="M37 21c0-4 3-7 7-7h1c3 0 5 2 5 5v21c0 3-2 5-5 5h-1c-3 0-5 1-7 4V21Z" fill="#dffaf6"/>
  <path d="M22 25h8M22 31h8M22 37h6" stroke="#2f6f6d" stroke-width="3" stroke-linecap="round"/>
  <path d="M45 24l2 4 4 1-3 3 1 4-4-2-4 2 1-4-3-3 4-1 2-4Z" fill="#f6c85f"/>
</svg>
